# xmcd
#
# Track frame offsets:
#	182
#	24735
#	52135
#	70960
#	87582
#	113490
#	133777
#	160565
#	185900
#	214465
#
# Disc length: 3040 seconds
# Revision: 2
# Processed by: cddbd v1.5.2PL0 Copyright (c) Steve Scherf et al.
# Submitted via: dBpowerAMP V12.0
#
DISCID=970bde0a
DTITLE=A.C. Reed and Maurice Vaughn - I Got Money [dBP-LITE-FLAC@]
DYEAR=1992
DGENRE=Blues
TTITLE0=Boogie All Night (A.C. Reed Vocal)
TTITLE1=Help Me Spending My Gold (A.C. Reed Vocal)
TTITLE2=My Buddy Buddy Friend (A.C. Reed Vocal)
TTITLE3=This Little Voice (A.C. Reed Vocal)
TTITLE4=Big Boss Man (A.C. Reed Vocal)
TTITLE5=Mojo Hand (Maurice Vaughn Vocal)
TTITLE6=Everything I Do Got to Be Funky (Maurice Vaughn Vocal)
TTITLE7=I Got Money (Maurice Vaughn Vocal)
TTITLE8=Computer Took My Job (Maurice Vaughn Vocal)
TTITLE9=Mojo on Me (Maurice Vaughn Vocal)
EXTD=
EXTT0=
EXTT1=
EXTT2=
EXTT3=
EXTT4=
EXTT5=
EXTT6=
EXTT7=
EXTT8=
EXTT9=
PLAYORDER=
